<svg xmlns="http://www.w3.org/2000/svg" viewBox="0 0 362.27 221.55"><defs><style>.cls-1{fill:#231f20;}</style></defs><title>Asset 4</title><g id="Layer_2" data-name="Layer 2"><g id="Layer_1-2" data-name="Layer 1"><path d="M6.7,168.34a9.6,9.6,0,0,1,1.76-3.27c.92-1.42,2.14-2.65,3.09-4.06,1.15-1.7,2.61-3.14,3.69-4.91A39.85,39.85,0,0,1,17.89,153c1.67-2.17,3.7-4.06,5.27-6.29,1.89-2.67,4-5.14,6.1-7.65,1.5-1.83,2.85-3.78,4.41-5.57a40.91,40.91,0,0,0,4.62-5.84c1.37-.61,1.59-2.19,2.63-3.1a11.51,11.51,0,0,0,2.38-3.23,2.33,2.33,0,0,1,.31-.32c1.78-1.93,3.66-3.77,5.3-5.82.9-1.12,2-2,2.89-3.18s2.3-2.12,3.22-3.36c1.18-1.6,2.69-2.86,3.94-4.36,1.38-1.66,2.6-3.45,4.55-4.52a20.84,20.84,0,0,1,3.28-4.2c1.18-1.28,2.77-2.2,3.5-3.88,1.31-.35,1.53-1.76,2.45-2.52a33,33,0,0,0,2.53-2.49c.11-.11.2-.27.32-.31,2.21-.58,3.25-2.58,4.79-4,.61-.54,1.76-.74,1.59-2,0-.13.27-.36.46-.46,1.2-.66,1.66-2.09,2.83-2.74.52-.29.91-.46,1.08-1.13.12-.43.69-.74,1.06-1.11,3.87-3.88,7.76-7.75,11.62-11.64a7.35,7.35,0,0,0,1.47-1.83c.35-.73,1.38-.62,1.55-1.56.07-.38.7-.67,1.1-1a8.53,8.53,0,0,0,1-.75c.6-.65.84-1.53,1.81-2,.72-.33.78-1.67,1.92-1.73,2.75-3.77,6.49-6.6,9.56-10.05.69-.78,1.1-1.75,2.18-2.2.42-.18.62-.89,1-1.48-1.39-1.71-1.29-4.13-2.64-5.94.09-1.68-1.52-2.82-1.46-4.51,0-.23-.44-.51-.4-.7.27-1.06-.45-1.92-.49-2.93-.09-3.3.12-3.2,1.51-6.35.73-1.66,1.29-3.44,3.41-3.85,2.92-2,6-3.72,9-5.62,2.81-1.8,5.88-3.15,8.56-5.17a5.2,5.2,0,0,1,3.13-1,5.91,5.91,0,0,0,3.33-1.55c.49-.37.87-.77,1.53-.62a.82.82,0,0,0,.44,0c2.38-.92,2.37-.76,5-.51a5.71,5.71,0,0,0,3.72-1.1,6.75,6.75,0,0,0,.9-.86c1.31,2.38,2.44,4.63,3.5,6.9.55,1.18,1,2.43,1.58,3.57A14.21,14.21,0,0,1,162.9,14c.32,1.38,1.37,2.36,1.72,3.75a16.3,16.3,0,0,0,1.79,3.69c.43.79,1,1.52,1.51,2.38.45-.26,1.39.61,1.54-.68a28.53,28.53,0,0,1,5.14-2.63l-1.34,1.64c.31.16.48.32.64.32a1.24,1.24,0,0,0,.81-.16c1.22-1.21,3.23-1,4.31-2.49,1.2.12,1.88-.82,2.8-1.31s1.82-.62,2.66-1.07a66.19,66.19,0,0,0,6.76-4.07,25.28,25.28,0,0,1,4.76-3,4.64,4.64,0,0,0,1-.78c-.15.53-.15,1.23-.49,1.55a11.06,11.06,0,0,0-2.11,3.16.9.9,0,0,0,1.41-.2,1.49,1.49,0,0,1,1.57-.49,1.08,1.08,0,0,1,.73,1.75c-.56.65-1.2,1.22-2.09,2.12,1.8.15,2.41-1.42,3.65-1.22,0,.55.08,1.07-.4,1.58s-.54,1.23-1,1.72-1.17.4-1.31,1.25v-.1a1.22,1.22,0,0,0-.33.14s0,.17.07.26a.66.66,0,0,0,.26-.3c.66.29,1-.94,1.76-.38s.82-.66,1.51-.67c.53,0,1.05-.63,1.56-1l1.65-1.17.9,1.25c.06-.11,0,0,0,.09a47.68,47.68,0,0,1-4.13,4,3.81,3.81,0,0,0-1.77,2.13c.22,0,.47.08.61,0,.82-.51,2-.88,2.32-1.63.47-1,1.41-1.14,2-1.75,1.64-1.54,3.82-2.15,5.94-2.77.16-.05.38.11.74.22-.24.29-.37.55-.57.64a14.75,14.75,0,0,0-3.5,2.31c-1.45,1.25-3,2.4-4.46,3.6-.12.09-.21.3-.32.3-2.45.12-3.87,2.11-5.8,3.17A12.26,12.26,0,0,0,192,31.67a26.88,26.88,0,0,1-2.91,2.51c-.88.74-1.73,1.51-2.66,2.19a9.06,9.06,0,0,1-1.66.79c-.25.12-.62.14-.74.33-1.36,2.23-3.48,3.74-5.22,5.61a1.29,1.29,0,0,0-.22,1.71,26.49,26.49,0,0,1,1.07,3.11c0,.06,0,.16.06.19,1.68,1.11,1.42,3.13,2.12,4.69.9,2,1.37,4.17,2.28,6.16.74,1.64.92,3.44,1.67,5.09.82,1.8,1.11,3.84,1.91,5.66s1,3.72,2.07,5.37c.37.58-.17,1.47.56,2,0,2.56,1.16,4.85,1.85,7.25a28,28,0,0,0,.79,3.44c.32.75.07,1.86.54,2.42.71.85,0,1.87.65,2.65s-.22,1.7.58,2.45a1.52,1.52,0,0,1,0,1.48c-1.08,1.43.18,2.75,0,4.11,1,1.49.21,3.14.45,4.7-.88,1.81-.37,3.74-.41,5.6a12.52,12.52,0,0,1-.81,4.35c-.32.79-.09,1.62-.47,2.48s-.17,1.9-.76,2.8c-.48.73-.68,1.65-1.13,2.41-.82,1.38-.83,3-1.67,4.44a7.43,7.43,0,0,1-1.48,2.26c-.63.51-.91,1.31-1.67,1.74a12.77,12.77,0,0,0-1.6,1.53c-.59.51-1.51.83-1.78,1.46s-1.06.81-1.48,1.34a13.6,13.6,0,0,1-1.55,1.58,10.82,10.82,0,0,1-2.14,1.83c-.78.39-.87,1.28-1.7,1.68s-1.18,1.38-1.77,2.1a5.77,5.77,0,0,0-1.51,2.28,9.59,9.59,0,0,1-2.12,3.1,2.19,2.19,0,0,0-.44,1.17c-.06.31-.4.57-.66.91-.86-.28-1.42-1.31-2.51-1-.8.24-1.63.35-2.44.55-.33.08-.65.34-1,.33-2.53,0-4.26,1.4-5.86,3.15-.9,1-2,1.76-3,2.66-.6.53-1.16,1.1-1.78,1.69-1.58.17-3.3.34-5,.54-.18,0-.34.23-.53.31a53.5,53.5,0,0,0-7.8,4.25,1.42,1.42,0,0,1-.76.3,4.18,4.18,0,0,0-2.13.78c-.67.33-1.65-.14-2.12.8a.35.35,0,0,1-.29.1c-.83-.93-1.06.23-1.77.42-1.2-.4-1.62-1.42-1.46-2.78a3.28,3.28,0,0,0-3,.39c-.18.1-.37.3-.54.29-2-.11-3.6.95-5.27,1.79-.06,0-.15,0-.28,0-.63-.69.09-1.11.49-1.29a5.83,5.83,0,0,0,2-1.15c.53-.57,1.49.18,2-.63a1.58,1.58,0,0,0,1.89-1.56,2.63,2.63,0,0,0-.75-2.27c-.23-.19-.42-.41-.66-.65a22.29,22.29,0,0,1-4.4,0c-3-.63-6.12-.18-9.16-.44a25,25,0,0,1-4-1.05c-.48-.12-1.15-.4-1.43-.2-.82.6-1.68.31-2.51.41s-1.49-.3-2,.41c-.64-.73-1.5-.35-2.26-.41s-1.48,0-2.22,0-1.48,0-2.22,0-1.58-.28-2.3.4c-.22.22-.9.14-1.27,0s-.43-.37-.83-.05c-.23.17-.78-.06-1.17-.13a5,5,0,0,0-.81-.19,4.37,4.37,0,0,1-3.75-1.19,2,2,0,0,0-1.51-.55c-1.18.16-2-.81-3-.91a22.55,22.55,0,0,1-3.33-.31c.34,0,.68-.13,1-.16a7.73,7.73,0,0,0,3-.39c.86-.41,2,.28,2.93-.47.22-.18.72,0,1.08,0,1.06-.17,2.14.33,3.21-.31.84-.5,2,.23,2.9-.54.26-.22.86,0,1.31,0a8.06,8.06,0,0,0,5.55-2.14,3.48,3.48,0,0,1,2.5-1c2,.08,4-.77,6-.44,2.19-.85,4.47-.27,6.7-.44a22.73,22.73,0,0,0,4.34-.8c1-.28,2.11.08,3.14-.49.58-.32,1.47-.05,2.07-.35s1.34-.06,2-.49,1.91-.26,2.89-.44c1.24-.23,2.53-.34,3.8-.53s1.39-.26,1.49-1.59c0-.14,0-.29,0-.59a9,9,0,0,0,4.23-.93,1.39,1.39,0,0,1,.88,0,6.19,6.19,0,0,0,3.54-.59,8.43,8.43,0,0,0,2.85-2.74c1.09-1.36,2-2.9,3-4.29a20.71,20.71,0,0,0,2.91-5.69c.76-1.83.75-3.8,1.6-5.57a5.81,5.81,0,0,0,.09-2.18c0-.82,0-1.63,0-2.45s.16-1.37-.36-2.08,0-1.44-.42-2.26a17.15,17.15,0,0,1-.48-3.12c-.35-1.67-.32-3.43-.52-5.14a5.49,5.49,0,0,0-.56-2.42c-1-1.44-1.05-3.13-1.62-4.67-.82-2.18-1.19-4.6-2.34-6.57-1-1.74-1.26-3.87-2.75-5.33-.1-.1-.26-.22-.26-.33,0-2.08-1.41-3.57-2.22-5.31-.38-.81-.6-1.68-.91-2.52a4.12,4.12,0,0,0-.74-1.67c-.57-.5-.51-1.14-.74-1.79a2.26,2.26,0,0,0-2.2,1.14,4.75,4.75,0,0,1-1.76,2c-.75.39-1.11,1.15-1.67,1.69-1.76,1.7-3.23,3.69-4.9,5.49-1.43,1.53-3,2.93-4.48,4.4a2,2,0,0,0-.39.63c-.08.18,0,.54-.15.59-1.67.73-2,3-3.86,3.46-.13,0-.31.21-.3.3.12,1.29-1.11,1.5-1.76,2.11S118,98,117,98.36a1.31,1.31,0,0,0-.76.77c-.17.81-1.08,1.09-1.23,1.71-.21.79-.91.78-1.3,1.21-1.85,2-3.73,4-5.57,6.11-.61.69-1.13,1.44-1.75,2.12-1.38,1.5-2.76,3-4.08,4.55-.33.39-.33,1.1-.68,1.45s-1.19.33-1.44.71a22.79,22.79,0,0,1-1.84,2.08c-.59.71-1.21,1.42-1.77,2.16-.39.5-.86.94-1.27,1.42-1.73,2-3.65,3.79-5.3,5.83S86.43,132,85,134c-1.06,1.44-2.66,2.43-3.38,4.14a1.16,1.16,0,0,1-.62.61c-1.48.44-1.73,2-2.67,2.88-.35.34-.54.87-.93,1.16a11.94,11.94,0,0,0-3.28,3.72A8.93,8.93,0,0,1,72,148.44a22,22,0,0,1-1.78,1.95,5.71,5.71,0,0,0-1.64,2c-.27.55-1.63.26-1,1.33a10,10,0,0,0-1.22,1c-.42.46-.72,1-1.12,1.52s-.83.85-1.25,1.27a12.5,12.5,0,0,0-1.4,1.42c-1.64,2.26-3.81,4.08-5.24,6.5-.93.21-1,1.2-1.65,1.74a20.69,20.69,0,0,0-1.59,2c-1.77,2.09-3.56,4.16-5.34,6.24-.51,1.85-2.2,2.87-3.17,4.42a32.35,32.35,0,0,1-4,4.94c-.6.63-.58,1.9-1.82,1.9a9,9,0,0,1-1.42,2.08c-.6.69-1.56,1.27-1.79,2.1-.27,1-1.39,1.24-1.52,2.28-.07.63-1.28.41-1.28,1.45,0,.5-.77,1-1.17,1.49s-.79,1.18-1.27,1.69-1.42.76-1.42,1.12c0,1-.86,1.32-1.18,2a11.3,11.3,0,0,1-1.91,2.32c-.7.82-1.35,1.67-2.17,2.7-.24-.56-.4-1-.6-1.38a1.58,1.58,0,0,0-.46-.56,23.31,23.31,0,0,0-2.11-1.33,2.32,2.32,0,0,0-2.75,0,2,2,0,0,1-1.59.48,2.66,2.66,0,0,0-2.26.94,26.47,26.47,0,0,0-5.5,6.61,1.92,1.92,0,0,1-.49.68c-1.2.8-2,2.1-3.26,2.78a6.73,6.73,0,0,0-2.93,3.22c-.56,1.18-1.17,2.33-1.78,3.49a1.52,1.52,0,0,1-.91.79c.38-1,.81-2,1.15-3,.6-1.82,1.15-3.66,1.85-5.46a28,28,0,0,1,.9-3.19,14.72,14.72,0,0,0,.93-3.15c.4-1.73,1.54-2.94,2.34-4.38.6-1.09,1-2.37,2.16-3.11-.28-.95.58-1.4.95-2.05,3.16-5.56,2.58-3.84,5.81-12.49,1.53-4.1,3-8.24,4.82-12.23a68.49,68.49,0,0,1,4.5-7.92c.66-1.06,1.87-1.72,2.24-3.08.13-.45.5-.87.39-1.38-.34-1.45.5-2.47,1.27-3.48s1.55-1.89,2.34-2.81c1.76-2.06,3.47-4.15,5.05-6.35a17.6,17.6,0,0,1,2-2v-1.58l.44-.44c.15-.15.3-.3.18-.46.86,0,1.39,0,1-.85a4.29,4.29,0,0,0-1,.85c.12.16,0,.31-.18.46l-.44.44a3.28,3.28,0,0,0-2.66,1.59,29.89,29.89,0,0,1-4.13,4.5,3.62,3.62,0,0,0-1.17,1.95c-.12,1.4-1.33,1.54-2.1,2.19-1.87-.35-2.47,1.33-3.49,2.26-.83.76-1.42,1.79-2.41,2.58.07-.28,0-.64.2-.84.75-1,1.59-1.86,2.33-2.82s1.23-1.88,1.91-2.76c1.22-1.58,2.5-3.12,3.76-4.67s2.59-3.24,3.94-4.81a3.68,3.68,0,0,0,.69-2.82c0-.12-.13-.24-.21-.35-.72-1-.73-1-.25-1.52,1.25-1.41,2.54-2.79,3.76-4.22s2.59-3,3.74-4.68a2.26,2.26,0,0,0,.3-2.57,3.76,3.76,0,0,0-1.24.5A22.12,22.12,0,0,0,40,129.21c-1.71,1.89-3.46,3.75-5.13,5.69s-3.11,3.95-4.75,5.86a39.39,39.39,0,0,0-4.78,6,4.47,4.47,0,0,1-.77.8,21,21,0,0,0-3.33,4.17,18.91,18.91,0,0,1-2.18,2.66c-1.29,1.47-2.65,2.89-3.91,4.39a46.74,46.74,0,0,0-3.12,4c-.52.77-1.3,1.26-1.81,2.08a6.75,6.75,0,0,1-1.73,2C7.92,167.31,7.52,168.09,6.7,168.34ZM89.85,83a1.22,1.22,0,0,1-.46,1.15,80,80,0,0,0-5.68,6.53C81.91,92.8,80,94.84,78.2,97c-1.57,1.92-3.33,3.67-5,5.49-.15.17-.34.3-.47.48a33.08,33.08,0,0,1-4.89,5.74c-.75.7-1.43,1.5-2.09,2.25-1.42,1.59-2.62,3.39-4.13,4.94-.23.23-.17.76-.32,1.54a31,31,0,0,1,3.21-2.63,12.21,12.21,0,0,0,2.14-1.77,19,19,0,0,0,2.18-2.22c.54-.74,1.64-.85,1.91-1.83.94-.13.87-1.38,1.73-1.59,1.05-.26,1.11-1.46,1.83-1.94s1.48-.79,1.39-1.87c0-.19.37-.56.61-.6a3.05,3.05,0,0,0,2-1.63c.88-1.45,2.3-2.34,3.34-3.62,1.93-2.38,4.16-4.52,6.23-6.78.78-.84,1.4-1.84,2.23-2.61s1.58-1.1,2-2c.08-.17.55-.16,1.07-.29-.6.82-1,1.39-1.44,2l-4.24,5.57c-.9,1.19-1.71,2.44-2.69,3.55-1.78,2-3.69,3.94-5.47,6a22.77,22.77,0,0,0-2.37,3A23.45,23.45,0,0,1,73.19,111c-.34.32-.86.49-1.1.85a15.56,15.56,0,0,1-2.15,2.9c-.13.11,0,.47,0,1a15.36,15.36,0,0,0,1.23-.94,109.85,109.85,0,0,0,7.71-8.14c1-1.29,2.29-2.4,3.35-3.7,1.69-2.09,3.72-3.9,5.48-6a13.9,13.9,0,0,1,4-3.66c.32-.16.71-.48.76-.78.13-.78.69-.93,1.24-1.27s.66-1.25,1.15-1.44c1.08-.42,1.58-1.44,2.51-2a7.28,7.28,0,0,0,2.64-2,12.81,12.81,0,0,1,2.15-2.41c1.22-1.23,2.58-2.3,3.86-3.46,2-1.82,3.8-3.82,5.9-5.55,2.83-2.31,5.38-5,8-7.49,1-.92,1.89-1.89,2.83-2.83s2-2,3-3,1.51-2,2.62-2.68c.69-.43.81-1,.26-1.83a22.32,22.32,0,0,1-1.75-3.49A22.18,22.18,0,0,0,124.54,49c.17-1.35-1.27-2-1.48-3.19,0-.24-.9-.24-.76-1a3,3,0,0,0-.87-2.45,4.81,4.81,0,0,0-1.2.71c-.93,1-1.61,2.41-2.73,3-1.37.74-1.59,2.56-3.19,2.89-.86,1.77-2.55,2.79-3.79,4.21S108,56,106.75,57.39C104.38,60,101.63,62.2,99.49,65c-1.17,1.56-2.71,2.8-3.94,4.36-1.43,1.82-3.29,3.29-4.69,5.18-.94,1.27-2.16,2.31-3.18,3.56-1.69,2.08-3.78,3.84-5.46,6-1.16,1.47-2.51,2.81-3.74,4.24a4.61,4.61,0,0,0-.55,1.14l.59.59c.65-.75,1.59-1.17,2.24-1.87s1.75-1.14,2.22-2.13c0-.09.42,0,.65,0a.54.54,0,0,1,0,.22,6,6,0,0,1-1.13,1.94,3.56,3.56,0,0,0-1.37,1.84c-1.21-.06-.87,1.38-1.67,1.77-.17.09-.17.55-.3,1.05a14.15,14.15,0,0,0,1.59-.63c.31-.18.49-.6.81-.75.65-.32.6-1.16,1.33-1.51s1-1.16,1.46-1.75c.19-.23.39-.54.64-.62.83-.23,1-1.09,1.52-1.57a7,7,0,0,0,1.84-1.9C88.7,83.42,89.32,83.32,89.85,83Z"/><path class="cls-1" d="M79.12,191.57a17.65,17.65,0,0,1-2.8,1.54A5.32,5.32,0,0,0,74,195.2a2,2,0,0,0-1.64,1.87A2.85,2.85,0,0,0,71,198c-.3.4-.59.79-.88,1.16a.37.37,0,0,0,.55-.06.78.78,0,0,1,.66-.27,25.32,25.32,0,0,0-4.51,2.86,43.91,43.91,0,0,1-4.29,3q-.23.21-.06.27c.11,0,.09.13-.05.28a6.31,6.31,0,0,1-1.27.77,4.28,4.28,0,0,0-1.27.87q.23.22.33,0a.22.22,0,0,1,.33-.1,1.09,1.09,0,0,1-.54.44,2.6,2.6,0,0,0-.67.33l-.11.05c.08,0,.11-.13.11-.27a3,3,0,0,1-.6.49,1.47,1.47,0,0,0-.49.5c-1,.58-1.91,1.13-2.87,1.65s-1.94,1.06-3,1.65a4.4,4.4,0,0,0-1.6.49,6.91,6.91,0,0,1-1.6.61,6.41,6.41,0,0,1-2.42-.28,3.83,3.83,0,0,1-1.87-1,1.44,1.44,0,0,1-.21-.77,2,2,0,0,0-.22-.88.46.46,0,0,0-.17-.28.44.44,0,0,1-.16-.27A2.16,2.16,0,0,1,44,208a4.42,4.42,0,0,1,.17-1,7.48,7.48,0,0,1,.82-2.2c.4-.74.79-1.47,1.15-2.21a58.52,58.52,0,0,1,3.41-5.93q1.77-2.64,4-5.72,1.11-1.44,1.71-2.37c.4-.62.75-1.21,1-1.76s.61-1.14.94-1.76.82-1.45,1.48-2.47a3.35,3.35,0,0,1,.61-1,6.91,6.91,0,0,0,.72-1c.21-.29.45-.6.71-.93a3.36,3.36,0,0,1,.71-.71,4,4,0,0,1,1.05-.44,2.14,2.14,0,0,1,1.37,0,.53.53,0,0,1,.39.16,1.62,1.62,0,0,0,.39.28l1.09.55a5.31,5.31,0,0,1,1.44,2.86,5.45,5.45,0,0,1-.56,3.52l-1,1.21c-.3.36-.59.71-.89,1s-.62.68-1,1a4.85,4.85,0,0,0-.61.83c0,.11-.07.17-.11.17a.32.32,0,0,0-.16,0,5.29,5.29,0,0,0-.66.5A.39.39,0,0,1,62,191a.36.36,0,0,0-.16.33,9.86,9.86,0,0,0-1.66,2.2,7.83,7.83,0,0,1-1.64,2.09,50.66,50.66,0,0,1-3.91,5.83q-2.15,2.75-4.24,5.61c.3.22,1.18,0,2.65-.77l1.1-.44a5.05,5.05,0,0,0,1.2-.77,17.88,17.88,0,0,0,3.36-2A38.27,38.27,0,0,1,62,200.82l1.21-.77c.66-.44,1.34-.87,2-1.27s1.41-.79,2.15-1.15a33.31,33.31,0,0,1,3.08-1.77,24.83,24.83,0,0,0,3-1.75c.14,0,.21,0,.21,0s0,.06.12.06a3.66,3.66,0,0,1,1.42-.77,2.33,2.33,0,0,0,1.21-.77.6.6,0,0,0,.66-.17.46.46,0,0,1,.55-.16A2.63,2.63,0,0,1,79.12,191.57ZM72.74,174a10.6,10.6,0,0,0-2.69.33c-.84.22-1.23.91-1.15,2.09a9.3,9.3,0,0,1-2.59-.94,2.54,2.54,0,0,1-1.49-2.14,7.67,7.67,0,0,1,.45-2.59,9.48,9.48,0,0,1,1.21-2.37c.51-.73,1-1.42,1.54-2.08a15,15,0,0,1,1.43-1.65,2.68,2.68,0,0,0,1.48-.39,1.33,1.33,0,0,1,1.48.16,3.22,3.22,0,0,1,1,.94,14.27,14.27,0,0,1,1,1.6,6.51,6.51,0,0,1,.71,1.87,2.81,2.81,0,0,1-.1,1.76,4.12,4.12,0,0,1-.94,1.59,10.82,10.82,0,0,1-1.38,1.16Z"/><path class="cls-1" d="M118.83,193.23a2.42,2.42,0,0,1-1.21,1.09,4.55,4.55,0,0,0-1.32.88c-.14.66-.36,1.07-.66,1.22a.48.48,0,0,0,0,.38.88.88,0,0,1-.06.5,3.76,3.76,0,0,0-1,1.15,9.28,9.28,0,0,0-.33.88,2,2,0,0,1-.38.72,2.82,2.82,0,0,1-1.16.65,2.87,2.87,0,0,0-.11,1c-2.86,1.46-5.4,2.89-7.64,4.29a48.52,48.52,0,0,1-7.87,3.85,6.05,6.05,0,0,1-3.74-.33,6.88,6.88,0,0,1-2.75-1.87,2.42,2.42,0,0,1-.6-1.38c0-.48-.09-1.12-.17-1.92a2.82,2.82,0,0,1,.28-1.65,2.86,2.86,0,0,0,.27-1.66q-1.75,1.54-4.18,3.36t-4.29,3.35c-1,.74-1.9,1.44-2.86,2.1a12.51,12.51,0,0,1-3.08,1.54,4.9,4.9,0,0,1-1.92.05,8.11,8.11,0,0,0-2.15-.05c-.51-.23-.8-.48-.88-.77s-.18-.77-.33-1.43a3,3,0,0,0-.33-.83,2.46,2.46,0,0,1-.22-1.15,6.33,6.33,0,0,1,.66-2.64c.44-1,.85-1.84,1.21-2.64q1.88-3.53,4-6.88c1.4-2.24,2.83-4.34,4.29-6.32q3.19-4.29,6.49-8A58.13,58.13,0,0,1,94,173.76a1.06,1.06,0,0,0,1-.33,1.36,1.36,0,0,1,1-.44,1.3,1.3,0,0,1,.88.38c.3.26.59.49.88.72.81.58,1.65,1.15,2.53,1.7a5.12,5.12,0,0,1,2,2.26,19.81,19.81,0,0,0,2.31-3.19,10.91,10.91,0,0,0,1.43-.61,2,2,0,0,1,1.54-.16,2.38,2.38,0,0,1,1.21,1,9.93,9.93,0,0,0,1.1,1.38,5.46,5.46,0,0,1,.83,1.7,2.3,2.3,0,0,1-.17,2A5.38,5.38,0,0,1,109,182l-1.76,1.49a30.24,30.24,0,0,0-3.85,5.61A62,62,0,0,1,99.8,195,34.66,34.66,0,0,1,98,198.23a22.94,22.94,0,0,0-1.81,3.69,2.47,2.47,0,0,0,0,2.42c.4.51,1.59.33,3.57-.56a.75.75,0,0,0,.55-.21,19.58,19.58,0,0,0,5.12-2.75,39.79,39.79,0,0,1,4.89-3.19c.59-.37,1-.63,1.27-.77l.66-.39.6-.38,1.21-.77,1.43-.77a7.64,7.64,0,0,1,1.6-.88,14.09,14.09,0,0,1,1.7-.56ZM82,200.7c.15.08.22,0,.22-.1s.08-.19.22-.11a8.5,8.5,0,0,0,.77-.88,1.14,1.14,0,0,1,1-.44,6.83,6.83,0,0,1,2-1.87c0-.23,0-.33.11-.33s.11-.08.11-.23a19.87,19.87,0,0,0,2.26-2.14c.69-.77,1.45-1.52,2.25-2.25l2.2-2.2A10.56,10.56,0,0,0,95,187.61a2.49,2.49,0,0,1,.61-.6,1.89,1.89,0,0,0,.6-.71,2.51,2.51,0,0,0,.17-1.54c-.11-.52-.24-1-.39-1.54a4.25,4.25,0,0,0-2.69,1.21c-.63.66-1.23,1.31-1.82,2a9.47,9.47,0,0,0-1.37,1.21,15.2,15.2,0,0,0-1.16,1.44l-2.64,3.08a.91.91,0,0,0-.27.44,1,1,0,0,1-.28.44c-.58.66-1.15,1.33-1.7,2s-1.08,1.41-1.6,2.15a17.29,17.29,0,0,0-2.53,4.73,3,3,0,0,0,1-.44A12.23,12.23,0,0,0,82,200.7Z"/><path class="cls-1" d="M134.45,190.92q.44-.66,1-1.65c.37-.66.73-1.38,1.1-2.15s.74-1.48,1.1-2.14.7-1.21,1-1.66q-2.2,1.55-4.78,3.75l-4.79,4.07-1.43,1.7c-.59.7-1.1,1.27-1.54,1.71-.88.8-1.72,1.65-2.53,2.52s-1.69,1.77-2.64,2.65a6.34,6.34,0,0,0-1.26,1.48,5.69,5.69,0,0,1-1.38,1.49c-.44.44-.86.89-1.26,1.37a6.46,6.46,0,0,1-1.27,1.16,2.19,2.19,0,0,0-.66.77,2.16,2.16,0,0,1-.66.77,2.5,2.5,0,0,0-.44.71c-.14.33-.29.64-.44.93a4.33,4.33,0,0,1-.82,1,1.13,1.13,0,0,0-.39,1.09l-.33.66a.26.26,0,0,0,.17.28q.16.06-.06.27a1.21,1.21,0,0,1-.38-.16l-.28-.27a2.08,2.08,0,0,0-.71.55.55.55,0,0,1-.72.11c-.14.14-.33.1-.55-.11s-.4-.3-.55-.22a.39.39,0,0,1-.11-.45.86.86,0,0,0,.11-.43.94.94,0,0,0-.49-.28.56.56,0,0,1-.39-.27,11.4,11.4,0,0,1,.83-2.92c.4-.92.82-1.81,1.26-2.69q4.08-7.38,8.58-14.53l5.5-8.46q1.55-2.31,3-4.68t3.13-4.57a16,16,0,0,0,1.38-.93,1.4,1.4,0,0,1,1.7,0,4.05,4.05,0,0,1,1.65,2.42,7.14,7.14,0,0,1,.22,3.52,5.07,5.07,0,0,1-.88,2.2,4.93,4.93,0,0,0-.88,1.76c.88-.59,1.84-1.29,2.86-2.09l3.08-2.42.66-.22.33-.44c.59-.37,1.32-.79,2.2-1.27a6.45,6.45,0,0,1,2.53-.82.91.91,0,0,1,.72.05,3.32,3.32,0,0,0,.6.28.57.57,0,0,1,.22.38.89.89,0,0,0,.11.38,2.12,2.12,0,0,1,1.1.45,4.53,4.53,0,0,0,.66,1.09,10.58,10.58,0,0,1,.77,1.11,3.31,3.31,0,0,1,.44,1.21,2.6,2.6,0,0,1-.22,1.43,8.2,8.2,0,0,1-.55.71c-.22.26-.47.53-.77.83-.51.66-1.14,1.39-1.87,2.2s-1.36,1.54-1.87,2.2a17.9,17.9,0,0,0-3.46,4.4,42.67,42.67,0,0,1-3.14,4.83c-.29.37-.55.72-.77,1.05a4.57,4.57,0,0,0-.55,1.27l-.44.33a18.11,18.11,0,0,1-1.81,2.8,7.59,7.59,0,0,0-1.38,3.25,2.14,2.14,0,0,0,2,.11,4.5,4.5,0,0,1,1.87-.44,81.09,81.09,0,0,0,11.55-5.72,3.56,3.56,0,0,0,.94-.33,2.94,2.94,0,0,1,.82-.33,13.19,13.19,0,0,1,1.38-.88c.4-.22.78-.43,1.15-.61s.74-.38,1.1-.6l1.43-.88a.79.79,0,0,1,.44.27.37.37,0,0,0,.33.17c-.44.36-.69.51-.77.44s-.22.18-.44.77c-.22-.22-.33-.15-.33.22a2.41,2.41,0,0,0-1.32.77q.22.21.39,0a.28.28,0,0,1,.38-.12,2.41,2.41,0,0,1-.71.33,1.11,1.11,0,0,0-.61.45l-.22-.11c-.14.21-.26.31-.33.27s-.14.13-.22.5a2.48,2.48,0,0,0-1.37.66,5.5,5.5,0,0,1-1.38.88c-.07.14-.05.22.06.22s.09.07-.06.22l-2.31,1.32c-.07,0-.11-.11-.11-.33a4.11,4.11,0,0,1-.82.49,2.13,2.13,0,0,0-.72.5.47.47,0,0,0,.17.43,2.67,2.67,0,0,1,.38.34,2.45,2.45,0,0,0,.5-.39.43.43,0,0,1,.6,0,3,3,0,0,1-1.32.93,3,3,0,0,0-1.32.94,1.55,1.55,0,0,0-1.54,1,2.36,2.36,0,0,0,1.76-.54,15.74,15.74,0,0,1,1.87-1.21A9,9,0,0,1,148,203a9.74,9.74,0,0,0,1.81-.88c-1.47,1-3,1.92-4.73,2.91s-3.37,1.89-5.06,2.69l-2,1.11a14.69,14.69,0,0,1-1.87.88,3.22,3.22,0,0,1-1.15.22,2.26,2.26,0,0,0-1.05.22,6.19,6.19,0,0,1-1,.38,2.13,2.13,0,0,1-1.27-.06l-1.1-.76q-2-.89-2.09-4a6.21,6.21,0,0,0,.28-2.32,2.34,2.34,0,0,1,.82-2.09c.37-1,.73-2.08,1.1-3.18a16.33,16.33,0,0,1,1.32-3,13.36,13.36,0,0,1,1.05-1.92C133.48,192.66,133.94,191.87,134.45,190.92Zm-23.1,21.89a.44.44,0,0,1,0-.55,1.49,1.49,0,0,0,.16-.66c.15.07.22.16.22.27s0,.16.11.16C111.65,212,111.5,212.29,111.35,212.81Zm39.27-11.11a2.24,2.24,0,0,0-.38.22l-.39.22.39-.22A2.24,2.24,0,0,1,150.62,201.7Zm1.1-3a.2.2,0,0,1-.22.22.35.35,0,0,0-.33.22.22.22,0,0,1,.11-.33A.9.9,0,0,1,151.72,198.73Zm.22,2.09c.15.14.11.23-.11.27s-.33.13-.33.27c-.14-.14-.11-.23.11-.27S151.94,201,151.94,200.82Z"/><path class="cls-1" d="M185.38,185.31a1.51,1.51,0,0,1-.49,1.26,1.3,1.3,0,0,0-.39,1.27,2.19,2.19,0,0,0-.66.77,6.64,6.64,0,0,1-.55.88,2,2,0,0,1-.66.87,2.16,2.16,0,0,0-.66.88,4.78,4.78,0,0,0-1.54,1.66,14.35,14.35,0,0,1-1.43,2c-.73.88-1.52,1.76-2.36,2.64s-1.67,1.72-2.48,2.53l-.82.82a4.75,4.75,0,0,0-.72.94,6,6,0,0,0-1.21,1.09,7.07,7.07,0,0,0-1.87,1.33c-.51.51-1,1.06-1.54,1.65a5.84,5.84,0,0,0-1.87,1.15,5.76,5.76,0,0,1-2,1.16l-.33.33a8.59,8.59,0,0,0-1.7.6,4,4,0,0,1-1.71.39,10.78,10.78,0,0,1-2.42.77,13.58,13.58,0,0,1-2.31.21,5.4,5.4,0,0,1-1.15.12,1.85,1.85,0,0,1-1.16-.44,5.05,5.05,0,0,1-1.54-2.53,8.89,8.89,0,0,1-.33-3.63,13.76,13.76,0,0,1,.72-2.86c.33-.88.68-1.76,1-2.64a38.85,38.85,0,0,1,3.3-5.78c1.25-1.8,2.49-3.54,3.74-5.22a20.48,20.48,0,0,1,1.32-1.6,11.47,11.47,0,0,0,1.21-1.59q2.53-2.64,5-5.39a27.2,27.2,0,0,1,5.77-4.84,1,1,0,0,0,.83-.11,1.08,1.08,0,0,1,.71-.22,2.41,2.41,0,0,1,2,1,11.69,11.69,0,0,1,1.21,1.87,2.15,2.15,0,0,1,.94-.21h1a.1.1,0,0,1,.11.11c0,.07,0,.1-.11.1a2,2,0,0,1,1.38.06,2.83,2.83,0,0,1,1,.82,9,9,0,0,1,.83,1.27,9,9,0,0,0,.71,1.16.75.75,0,0,0,.22-.56v-.66a.75.75,0,0,1,.33.66v.78a9.59,9.59,0,0,0-.11,1.1,2.68,2.68,0,0,1-.05.54c0,.15-.08.32-.11.5a3.29,3.29,0,0,1-.39.83,3.86,3.86,0,0,1-.38,1.42q-.39.89.27.33c.22-.43.42-.64.61-.6s.2.46.05,1.27c.07.14.15.18.22.11s.11,0,.11.22l.22-.22Zm-10.45,5.83a37.36,37.36,0,0,1,2.2-3.08,12.34,12.34,0,0,0,1.87-3.3,1.83,1.83,0,0,1,.28-.56,2.54,2.54,0,0,0,.27-.43,3,3,0,0,0-.11-1.38c-.15-.48-.29-.9-.44-1.26-.07-.08-.07-.11,0-.11s.07-.08,0-.22a.41.41,0,0,0-.49-.11c-.19.07-.32,0-.39-.22a1.31,1.31,0,0,0-.38.27,1.37,1.37,0,0,1-.5.28c0-.15-.05-.21-.16-.17s-.17,0-.17-.16c-.22-.08-.31,0-.27.11a.28.28,0,0,1-.17.33.1.1,0,0,0-.11-.11,2.8,2.8,0,0,1-.71.82c-.26.18-.57.39-.94.61a27.22,27.22,0,0,1-2.53,2.41,19.08,19.08,0,0,0-2.42,2.42c-.15.15-.22.26-.22.33s-.07.19-.22.34a3.94,3.94,0,0,0-.82.82,4.61,4.61,0,0,1-.83.83l-.55,1.21-.77.66a11,11,0,0,0-1.54,2.25c-.44.84-.92,1.67-1.43,2.48a5.69,5.69,0,0,0-1,1.32c-.29.51-.59,1.06-.88,1.65a12.5,12.5,0,0,0-1.32,4,5.5,5.5,0,0,0,.88-.44,7.49,7.49,0,0,1,.77-.45,4.09,4.09,0,0,0,2-.93c.55-.48,1.11-.93,1.7-1.37l.77-.66a17.72,17.72,0,0,0,2.81-2.26c.84-.84,1.66-1.7,2.47-2.58H172a4,4,0,0,0,1.1-1.1,7.26,7.26,0,0,1,1-1.21.17.17,0,0,1,.22-.06c.07,0,.18,0,.33,0,.66-.81,1.36-1.66,2.09-2.53a15,15,0,0,0,1.87-2.86,20.15,20.15,0,0,0-1.76,2.31A11.55,11.55,0,0,1,174.93,191.14Zm5.83-.11a1.62,1.62,0,0,0,.39-.28l.38-.39-.38.39A1.62,1.62,0,0,1,180.76,191ZM184,178.7c-.29,0-.33-.1-.11-.32-.07,0,0,.11.22.32Z"/><path class="cls-1" d="M262.6,186.52c.07.14,0,.27-.16.38a1,1,0,0,0-.39.38.45.45,0,0,0,.11.33c.07.08,0,.15-.11.23-.51.58-1,1.19-1.48,1.81a8,8,0,0,1-1.6,1.59,4,4,0,0,1-1.92,2.15,5.22,5.22,0,0,0-2.15,2,.29.29,0,0,1,.06.43.31.31,0,0,0,0,.45,31.16,31.16,0,0,1-4.73,3.51,37,37,0,0,0-4.73,3.42.2.2,0,0,1-.22-.22,5.79,5.79,0,0,1-2.36,1.87,6.5,6.5,0,0,0-2.48,1.87c.15.14.33.1.55-.11s.33-.22.33,0a2,2,0,0,1-.66.38,1.36,1.36,0,0,0-.66.5,1.08,1.08,0,0,1,.66-1.33,2,2,0,0,0,1.1-1.31,19.3,19.3,0,0,1-2.42,1.43,17.8,17.8,0,0,0-2.53,1.54,4.45,4.45,0,0,1,1.76-1.54,4.53,4.53,0,0,0,1.76-1.54A8.5,8.5,0,0,0,237,207a9.81,9.81,0,0,1-3.3,2.3,1.15,1.15,0,0,1-.77.72,1.18,1.18,0,0,0-.77.82,4.43,4.43,0,0,0,1.76-.93,2.9,2.9,0,0,1,1.87-.71.75.75,0,0,0,.44-.33c.07-.15.26-.22.55-.22v.88c-.15-.3-.27-.39-.38-.28a.69.69,0,0,1-.5.17.48.48,0,0,0-.05.38,2,2,0,0,1,.05.5,2.38,2.38,0,0,0-1.15.33,1.64,1.64,0,0,0-.83,1c-.15-.08-.15-.15,0-.22s.15-.15,0-.23a8.11,8.11,0,0,1-1.65,1.16,4.27,4.27,0,0,0-1.43,1.26c-.22-.21-.29-.33-.22-.33q-.22.22-.93.78c-.48.36-.79.33-.94-.12-.15.08-.18.15-.11.23a.14.14,0,0,1,0,.22c-.07,0-.11-.08-.11-.22a1.31,1.31,0,0,0-.38.27c-.11.11-.06.17.16.17,0,.07-.09.11-.27.11s-.24-.08-.17-.23c-.15-.07-.2,0-.16.12a.36.36,0,0,1-.06.33c.15-.08.07-.06-.22,0a2.24,2.24,0,0,1-.55.16.32.32,0,0,1-.22-.1l-.22-.23a2.1,2.1,0,0,0-.44.33l-.44.45a.85.85,0,0,1-.6.22.85.85,0,0,0-.61.21l-2.64,1.54a1.76,1.76,0,0,0-1.48.45,2.18,2.18,0,0,1-1.49.55,1.2,1.2,0,0,1,.55-.83c.29-.18.29-.46,0-.82l-1.32.22a1.7,1.7,0,0,0-1.1.66,4.52,4.52,0,0,0-1.26-.06,2.88,2.88,0,0,0-1.05.28l-.22.76a16,16,0,0,1-3.08.17,4,4,0,0,1-2.75-1.15q-.22.11-.27,0c0-.08-.13-.11-.28-.11a1,1,0,0,0-.88-.55,1,1,0,0,0-.33-.39.39.39,0,0,1-.11-.49.17.17,0,0,0-.22-.06c-.07,0-.14,0-.22,0a2.53,2.53,0,0,0-.55-1.21,14.59,14.59,0,0,1,0-7.54c.66-2.38,1.36-4.64,2.09-6.76a27.79,27.79,0,0,1,1.82-4.29l2.14-4.07q1.54-2.87,3.36-5.67c1.21-1.87,2.43-3.76,3.68-5.67a20.6,20.6,0,0,1,3-3.84,106.83,106.83,0,0,1,11.61-14,150.08,150.08,0,0,1,13.47-12.15c1.25-1,2.44-1.89,3.58-2.81a17.47,17.47,0,0,1,3.9-2.37c-.07,0,0-.1.22-.32a5.75,5.75,0,0,1,1.1-.33,4.42,4.42,0,0,0,1-.33,12.5,12.5,0,0,0,1.32-.06,4.42,4.42,0,0,0,1.1-.27,7.86,7.86,0,0,0,1.32,4.34,15.92,15.92,0,0,1,2,3.8,3,3,0,0,1,.17,1.32,12.33,12.33,0,0,1-.17,1.32,17.36,17.36,0,0,1-1.21,3.35c-.51,1.06-1,2.11-1.59,3.13a31.14,31.14,0,0,0-1.49,3.2,17.33,17.33,0,0,0-1,3.63,3.07,3.07,0,0,0-.38.44.86.86,0,0,0-.17.55,2.94,2.94,0,0,0-1.76,1.31c-.15.08-.24,0-.27-.1s-.13-.19-.28-.11a1.51,1.51,0,0,1-1.59.16,2.62,2.62,0,0,0-1.6-.28,8,8,0,0,1-1.43-1c-.44-.4-.92-.82-1.43-1.26a4,4,0,0,1-1.15-1.71,2.32,2.32,0,0,1,.49-2.25,2.44,2.44,0,0,1,.39-.33,4.38,4.38,0,0,0,.38-.33,4.33,4.33,0,0,0,1-1.54,18.07,18.07,0,0,1,.77-1.76,1.62,1.62,0,0,0-1.48.38l-1.71,1.27-1.7,1.26c-.55.4-1.09.83-1.6,1.26a4.93,4.93,0,0,1-.6.5c-.26.18-.54.38-.83.61l-2,1.54a5.11,5.11,0,0,0-.93.93,12.39,12.39,0,0,1-.83.94,2.38,2.38,0,0,1-.71.65,1.74,1.74,0,0,0-.61.56c-.22.36-.46.71-.71,1a12,12,0,0,1-.94,1.05,1.61,1.61,0,0,1-.11.66c-.15.14-.24.16-.27.05s-.1-.09-.17.06a9.6,9.6,0,0,1-1,.87A2.74,2.74,0,0,0,233,175a3.76,3.76,0,0,0-1.26,1.15l-1,1.43c-.33.48-.66,1-1,1.48a4,4,0,0,1-1.16,1.21,5.35,5.35,0,0,1-1.15,1.82,9.33,9.33,0,0,0-1.27,1.59,1,1,0,0,1,.39-1,2.76,2.76,0,0,0,.71-1c0-.15,0-.21.06-.17s.12,0,.27-.16c-.07-.74.11-1.2.55-1.38s.62-.64.55-1.37a5,5,0,0,1-1,1.1,1.8,1.8,0,0,0-.44,1.65c-.15.07-.22,0-.22-.11a.19.19,0,0,0-.22-.22c-.15.07-.2.23-.16.49a.66.66,0,0,1-.17.6.62.62,0,0,1-.11-.43,10.69,10.69,0,0,0-1.7,2.2,10.77,10.77,0,0,1-1.6,2.09,1.1,1.1,0,0,1-.22.43.7.7,0,0,0-.11.45,49.41,49.41,0,0,0-4.73,7.09q-2.09,3.8-4.07,7.87a15,15,0,0,1-1,3.13,6.62,6.62,0,0,0-.33,3.69c.44-1.32.88-2.63,1.32-3.91a30.15,30.15,0,0,1,1.54-3.69,4.3,4.3,0,0,1-.44,1.82,10.92,10.92,0,0,1-1,1.71,16,16,0,0,1-.77,3.08,2.8,2.8,0,0,0,.33,2.75,2.72,2.72,0,0,0,1.21.55,1.7,1.7,0,0,1,1.1.66,36.39,36.39,0,0,0,5.23-.88,20.35,20.35,0,0,0,4.89-1.87q.43.21.66-.06a.37.37,0,0,1,.55,0c.15-.3.33-.43.55-.39s.37-.13.44-.49a1.24,1.24,0,0,0,1.16-.17,2.22,2.22,0,0,0,.82-.83c0,.15.06.19.17.12a.89.89,0,0,0,.27-.33,1.43,1.43,0,0,0,1.38-.39,4.11,4.11,0,0,1,1.37-.82,14,14,0,0,1,3.19-2.42,6.81,6.81,0,0,1,2.2-1,4.51,4.51,0,0,0,1.71-.88,15.05,15.05,0,0,1,1.7-1.21q3-1.87,6.16-3.69a63.9,63.9,0,0,0,6.05-3.9c1.39-1,2.79-2,4.18-2.92S261.35,187.54,262.6,186.52Zm-48.73,13.53a.75.75,0,0,0,.22-.56,1.15,1.15,0,0,1,.22-.65,1.15,1.15,0,0,0-.22.65A.75.75,0,0,1,213.87,200.05Zm1-1.87c.15,0,.22-.11.22-.33C215.08,198.07,215,198.18,214.86,198.18Zm.77-3a4.59,4.59,0,0,1-.55,1A4.59,4.59,0,0,0,215.63,195.2Zm2.2,1a6,6,0,0,1-.93,2.25,7.45,7.45,0,0,0-1.05,2.25,6.93,6.93,0,0,1,.83-2.25C217.08,197.75,217.46,197,217.83,196.2Zm.22-.11c.22-.44.48-1,.77-1.6a5,5,0,0,1,1-1.48,8.37,8.37,0,0,1,1.71-3.19,17.68,17.68,0,0,0,2-2.87,6.48,6.48,0,0,1-1.32,2.65c-.73,1-1.36,1.83-1.87,2.64-.37.58-.73,1.22-1.1,1.92A14.71,14.71,0,0,1,218.05,196.09ZM224,186.3q.22.1.06.33a.5.5,0,0,1-.39.22.26.26,0,0,1,.17-.28A.25.25,0,0,0,224,186.3Zm.44,25.85-.22.21Zm1.43-28.27a6.25,6.25,0,0,1-1.43,2.09A4.55,4.55,0,0,1,225.86,183.88Zm.44,27.61c.15-.15.26-.22.33-.22S226.45,211.34,226.3,211.49Zm10-1.76v.33c-.15-.08-.2,0-.16.11s0,.18-.17.11c.15-.15.15-.22,0-.22,0-.15.06-.21.17-.17S236.31,209.87,236.31,209.73Zm3.63-2.87a4.12,4.12,0,0,1-1.15,1.44l-1.6,1.21a.19.19,0,0,1-.05-.23c0-.07,0-.1-.06-.1a3.47,3.47,0,0,0,1.38-1.21A2.73,2.73,0,0,1,239.94,206.86Z"/><path class="cls-1" d="M249.51,210.39a1.21,1.21,0,0,0,.83-.88c.18-.52.34-1,.49-1.32a15.77,15.77,0,0,0,2.86-4.29,24.18,24.18,0,0,1,2.75-4.62,114.45,114.45,0,0,1,6.6-10.46,15,15,0,0,0,1.1-2.19,3.61,3.61,0,0,1,1.54-1.77,1.57,1.57,0,0,1,.55-1.09,2.07,2.07,0,0,0,.66-1.1,1.43,1.43,0,0,0,.33-.22,1,1,0,0,1,.33-.22,7.53,7.53,0,0,1,.55-1.1,9.54,9.54,0,0,1,.77-1.1,8.86,8.86,0,0,0,.88-1,11.5,11.5,0,0,0,1.16-1.59c.33-.55.67-1.08,1-1.59.59-.59,1.08-1.12,1.49-1.6a14.89,14.89,0,0,0,1.37-2,11.68,11.68,0,0,0,1.71-2.7,16.38,16.38,0,0,1,2.58-3.68,5.71,5.71,0,0,0,.66-1.27,6.65,6.65,0,0,1,.88-1.48,36.51,36.51,0,0,1,2.92-4.73q1.59-2.21,3.35-4.24c1.17-1.36,2.35-2.75,3.52-4.18s2.27-2.91,3.3-4.45a10,10,0,0,0,1.1-.44,3.67,3.67,0,0,1,1.1-.33c.22.14.42.29.61.43a1.25,1.25,0,0,0,.82.23,1.32,1.32,0,0,1,.88.82,1.7,1.7,0,0,0,1,.94,13.23,13.23,0,0,1,1,3.08,5.6,5.6,0,0,1-.5,3.63,17.13,17.13,0,0,1-2.09,3,19.78,19.78,0,0,0-2.2,3.08,2.21,2.21,0,0,0-.88,1,13.23,13.23,0,0,0-1.15,1.31,6.93,6.93,0,0,1-1.38,1.33.49.49,0,0,1-.11.33.45.45,0,0,0-.11.33c-.88.95-1.78,2-2.69,3s-1.82,2.15-2.7,3.24q-1.87,2.2-3.79,4.57t-3.91,4.57a2.52,2.52,0,0,0-.77.93,5.27,5.27,0,0,1-.66,1c-.44.51-.86,1-1.26,1.42a15.2,15.2,0,0,0-1.16,1.44,8.93,8.93,0,0,0-2.42,3c-.29.07-.59.51-.88,1.32a2.79,2.79,0,0,0-1.32,1.37,15.89,15.89,0,0,1-1,1.81.6.6,0,0,1-.22-.43,1.48,1.48,0,0,1-.38.71,2.36,2.36,0,0,0-.5.83q-.22-.22-.27,0a.27.27,0,0,1-.28.22,5.29,5.29,0,0,1-.49,1.21c-.19.29-.46.73-.83,1.32a.93.93,0,0,1-.33.49,5.83,5.83,0,0,0-.66.61c-.59,1-1.21,2-1.87,3.08a16.69,16.69,0,0,1-2.2,2.75c0-.08-.15-.19-.44-.33a1.06,1.06,0,0,1,0,.66c.15.14.17.18.06.11a.5.5,0,0,0-.28-.11.77.77,0,0,1-.49.66c-.26.07-.46.4-.61,1a1,1,0,0,0-.33.22,1.43,1.43,0,0,1-.33.22,5.61,5.61,0,0,1-.71,2,12.52,12.52,0,0,0-.94,1.76q-.22-.12-.27-.06s-.1,0-.17,0a17.23,17.23,0,0,1-1.65,2.8c-.66.92-1.28,1.82-1.87,2.7a13.39,13.39,0,0,0-1,1.48,7.81,7.81,0,0,0-.66,1.27,16.79,16.79,0,0,1-2.31,3.35,3.39,3.39,0,0,1-1.76,1.21c-.44,0-.73-.24-.88-.82a5.23,5.23,0,0,1,.33-2.64Zm13.64-11.55a10.33,10.33,0,0,0-1.21,1.15,2.83,2.83,0,0,0-.77,1.6c-.15.14-.22.25-.22.33a.85.85,0,0,1-.11.32,7.78,7.78,0,0,0,1.49-1.42A4.58,4.58,0,0,0,263.15,198.84Zm7.15-9.57c.29.14.42.07.39-.22a1.73,1.73,0,0,1,.05-.77,1.14,1.14,0,0,0-.44.44C270.15,188.94,270.15,189.12,270.3,189.27Z"/><path class="cls-1" d="M294.5,201.15a8.12,8.12,0,0,0-1.49,1c-.55.43-1.13.88-1.76,1.31s-1.21.85-1.76,1.22a8.56,8.56,0,0,1-1.37.77.63.63,0,0,0-.11.44,9.65,9.65,0,0,0-2.42,1.43,3.79,3.79,0,0,0-.39.43,3.79,3.79,0,0,1-.38.45,5.85,5.85,0,0,1-1.27.76,11,11,0,0,0-1.37.78,2.66,2.66,0,0,0-.5.33,3.51,3.51,0,0,1-.49.33,5.21,5.21,0,0,1-1.87.71,5,5,0,0,0-1.87.72,17,17,0,0,1-1.76-.12,1.78,1.78,0,0,1-1.43-.65.85.85,0,0,1-.17-.33,1.79,1.79,0,0,0-.16-.44c-.22-.37-.44-.77-.66-1.21a4.25,4.25,0,0,1-.22-2.09,12.29,12.29,0,0,1,.88-3c.44-1,.88-1.95,1.32-2.75a62.84,62.84,0,0,1,4-6.94c1.43-2.12,2.92-4.29,4.46-6.48,1.17-1.62,2.33-3.29,3.46-5s2.33-3.43,3.58-5.11a2.71,2.71,0,0,0,.33-.66,2.4,2.4,0,0,1,.33-.66,5.59,5.59,0,0,1,1-1,5,5,0,0,1,1.05-.66,1.78,1.78,0,0,1,1.87.66c.44.59.84,1.11,1.21,1.55a4.61,4.61,0,0,1,.88,2.2,5.23,5.23,0,0,1-.72,3.41,18.64,18.64,0,0,0-1.48,3q-1.42,1.42-2.7,2.91c-.84,1-1.66,2-2.47,3.13-.15,0-.22,0-.22.06s-.07.06-.22.06a42.54,42.54,0,0,1-3.36,4.56,19.42,19.42,0,0,0-3,5,.66.66,0,0,0-.44.1,9.6,9.6,0,0,1-1,1.77,9.5,9.5,0,0,0-1,1.76,38.29,38.29,0,0,0,5.06-3.53c.29-.29.59-.56.88-.82a3.13,3.13,0,0,1,1-.6,18.49,18.49,0,0,1,2.64-2.37A12.59,12.59,0,0,0,293,195.1a38.58,38.58,0,0,0,3.9-3.08q1.81-1.65,3.69-3.2a48.78,48.78,0,0,1,4.78-6.43,51.63,51.63,0,0,0,4.79-6.32,1.61,1.61,0,0,0,.82-.39,1,1,0,0,1,.72-.28,2.42,2.42,0,0,1,1.59.61,5.08,5.08,0,0,1,1.21,1.54,6.27,6.27,0,0,1,.66,2,5.62,5.62,0,0,1-.05,2.09,5.51,5.51,0,0,1-1,2.25c-.51.7-1,1.34-1.54,1.93-1,1.09-1.94,2.2-3,3.29s-2.05,2.21-3.08,3.3c-.59.74-1.1,1.44-1.54,2.1a9.34,9.34,0,0,0-1.1,2.31c-.07.14-.13.16-.17,0s-.05-.09-.05.06A14.58,14.58,0,0,1,301.7,201a7.9,7.9,0,0,0-1.26,4.52,3.14,3.14,0,0,0,2.25,0c.85-.26,1.63-.53,2.37-.82.07-.08.13-.08.16,0a.2.2,0,0,0,.17.11c.81-.37,1.72-.76,2.75-1.16a10.1,10.1,0,0,0,2.75-1.59,11.11,11.11,0,0,1,1.54-.88.1.1,0,0,1,.11-.11l.22-.12a38.09,38.09,0,0,1,4.89-3.35,52.27,52.27,0,0,0,5.12-3.36,1.74,1.74,0,0,0,1.32-.33,3.64,3.64,0,0,1-1.43,1.33,19.5,19.5,0,0,0-1.76,1,.91.91,0,0,1-.44.82l-.88.55a4.37,4.37,0,0,0-.77.6.45.45,0,1,0,.38.61.8.8,0,0,1,.5-.28,3.27,3.27,0,0,1-.72.88,3.91,3.91,0,0,0-.71.89,2.16,2.16,0,0,0-1.43.55c-.44.36-.84.73-1.21,1.1q-.11.54.27.33c.26-.15.35-.15.28,0a8.3,8.3,0,0,1-1.27,1.26,14.84,14.84,0,0,1-2.14,1.7l-1.65,1.21c-.15,0-.22,0-.22-.1s0-.08-.11,0a.57.57,0,0,1-.44.49,2.81,2.81,0,0,0-.77.28c-.08.14-.26.22-.55.22a.94.94,0,0,0-.39.38,3,3,0,0,1-.27.39,1.45,1.45,0,0,1-.61.11,1.24,1.24,0,0,0-.71.22.5.5,0,0,0-.28.27c0,.11-.12.16-.27.16a4.11,4.11,0,0,1-1.05.28,1.54,1.54,0,0,0-.93.5.56.56,0,0,0-.28.22,1.36,1.36,0,0,1-.27.33,3.81,3.81,0,0,1-1.21.44,5.5,5.5,0,0,0-1.21.33,25.37,25.37,0,0,1-4-.33,5.35,5.35,0,0,1-3.19-1.54,4.53,4.53,0,0,1-.72-3.25A29,29,0,0,1,294.5,201.15Z"/><path class="cls-1" d="M346.53,202.14a1.45,1.45,0,0,0-.72.22,2.74,2.74,0,0,0-.6.44,4.45,4.45,0,0,0-1.21,1q-.33.22-.33.06c0-.11-.07-.2-.22-.27a39.55,39.55,0,0,1-3.8,2.86q-2.14,1.42-4.23,2.75c-.44.29-.86.6-1.27.93s-.82.64-1.26.94a.42.42,0,0,1-.39,0,.74.74,0,0,0-.49.05,4.67,4.67,0,0,0-1.27.78c-.33.29-.89.25-1.7-.11a4.35,4.35,0,0,1-3.69.33,7.91,7.91,0,0,1-3-1.76c-.3.29-.51.43-.66.43l-.22.45a9.47,9.47,0,0,0-.88.38l-.61.28-.66.27a4.88,4.88,0,0,1-1,.28,2,2,0,0,0-.94-.22c-.33,0-.45-.19-.38-.56-.22.15-.39.13-.5,0a2.06,2.06,0,0,0-.71-.6,6.07,6.07,0,0,1,.6-2.15c.26-.4.65-1.08,1.16-2a2.6,2.6,0,0,1,.44-.71.1.1,0,0,1,.16,0,.19.19,0,0,0,.17.12c.07,0,.22-.22.44-.67q.23-.21,0-.33t0-.33a25.94,25.94,0,0,0,2.36-3.63l2.26-4.06q2.31-4.19,4.78-8.2t4.9-8.2c1-1.68,2.09-3.41,3.19-5.16s2.16-3.49,3.19-5.17q2.21-3.52,4.23-7.21t4.13-7.54c.66-1.24,1.37-2.45,2.14-3.62a31.05,31.05,0,0,0,2-3.63,1,1,0,0,0,.05-.88,1.33,1.33,0,0,1,.06-1,1.72,1.72,0,0,1,.82-1.1,6.62,6.62,0,0,1,1.38-.55,2.8,2.8,0,0,1,1.43-.11,7.68,7.68,0,0,1,1.54.33,8.84,8.84,0,0,1,2.86,1.59,5.06,5.06,0,0,1,2,2.48,4.86,4.86,0,0,1,0,2.8,16.84,16.84,0,0,1-.93,2.59,118.57,118.57,0,0,0-9.9,12.76q-4.51,6.7-8.69,13.75a1.47,1.47,0,0,0-.44.38,2.44,2.44,0,0,1-.33.39,1.57,1.57,0,0,1-.22.33c-.07.07-.07.22,0,.44a3.78,3.78,0,0,0-1.38,1.48,5.52,5.52,0,0,1-1.26,1.6,1.59,1.59,0,0,1-.28,1.21,2.9,2.9,0,0,0-.49,1.1l5.55-3.36q3-1.81,5.89-3.24a1.53,1.53,0,0,1,.88-.22c.51-.22.95-.43,1.32-.61a7.53,7.53,0,0,1,1.43-.5q.22,0,.27.06a.42.42,0,0,0,.28.06,1.3,1.3,0,0,0,.55-.17A1.46,1.46,0,0,1,355,180a11.76,11.76,0,0,1,2.36-.22,2.25,2.25,0,0,1,1.82.66,1.21,1.21,0,0,1,.22.93,1.86,1.86,0,0,0,0,.94,3.86,3.86,0,0,0,.44,1.26,2.19,2.19,0,0,1,.22,1.38,7.36,7.36,0,0,1-.66,2.42c-.37.8-.7,1.54-1,2.2a6.85,6.85,0,0,1-.5,1.15,2.08,2.08,0,0,1-.82.82,31.16,31.16,0,0,1-7.37,8.48,10.75,10.75,0,0,1-2.26,2.58c-.91.77-1.81,1.56-2.69,2.36l-2.42,1.77a30.46,30.46,0,0,0-2.64,1.81,17.4,17.4,0,0,1-2.75,1.71,9.79,9.79,0,0,1,2-1.43,22.56,22.56,0,0,0,2.31-1.54,5.23,5.23,0,0,0,1.26-1.27,5.07,5.07,0,0,1,1.27-1.26,12.52,12.52,0,0,1,1.54-1.1A2.81,2.81,0,0,0,346.53,202.14Zm6.16-17.28c-.37-.07-.55,0-.55.12s-.15.29-.44.44a1,1,0,0,1-.44-.11,2.37,2.37,0,0,0-.77.43.52.52,0,0,1-.44.39c-.22,0-.29.13-.22.27a7.15,7.15,0,0,0-1,.55,2.3,2.3,0,0,1-.44.33c-.29-.14-.44-.1-.44.12s-.18.4-.55.55a.29.29,0,0,0-.22.11,1.7,1.7,0,0,1-.33.22,1.18,1.18,0,0,0-.33.21c-.81.45-1.61.9-2.42,1.38s-2.05,1.34-3.74,2.58c-1.84,1.47-3.61,3-5.34,4.46s-3.42,3-5.11,4.45a13.21,13.21,0,0,1-1.1,2.81c-.51,1-.51,1.67,0,2a3.75,3.75,0,0,0,1.81-.55,31.79,31.79,0,0,0,3.74-2,59,59,0,0,0,4.95-3.41,45.46,45.46,0,0,0,5.34-4.78c1.25-1.4,2.47-2.81,3.68-4.24s2.4-2.91,3.58-4.45c-.07-.15,0-.26.16-.34s.24-.18.17-.33a2.67,2.67,0,0,1,.33-.54.92.92,0,0,0,.11-.55Zm-11.44,21.46c.07,0,.07,0,0,.05s-.07.13,0,.28a4.34,4.34,0,0,0-.94.49c-.25.18-.24.13.06-.16A3.61,3.61,0,0,0,341.25,206.32Zm4.18-3.52c0,.07-.09.2-.28.38a2.18,2.18,0,0,1-.49.39,1,1,0,0,1,.33-.39A5,5,0,0,0,345.43,202.8Z"/></g></g></svg>